<mxfile host="app.diagrams.net" agent="Mozilla/5.0 (Windows NT 10.0; Win64; x64) AppleWebKit/537.36 (KHTML, like Gecko) Chrome/131.0.0.0 Safari/537.36 Edg/131.0.0.0" version="25.0.3">
  <diagram id="C5RBs43oDa-KdzZeNtuy" name="Page-1">
    <mxGraphModel dx="1699" dy="477" grid="1" gridSize="10" guides="1" tooltips="1" connect="1" arrows="1" fold="1" page="1" pageScale="1" pageWidth="827" pageHeight="1169" math="0" shadow="0">
      <root>
        <mxCell id="WIyWlLk6GJQsqaUBKTNV-0" />
        <mxCell id="WIyWlLk6GJQsqaUBKTNV-1" parent="WIyWlLk6GJQsqaUBKTNV-0" />
        <mxCell id="mvioNwK95yMqdUQ73LqQ-36" value="" style="swimlane;fontFamily=Sarabun;fontSource=https%3A%2F%2Ffonts.googleapis.com%2Fcss%3Ffamily%3DSarabun;" parent="WIyWlLk6GJQsqaUBKTNV-1" vertex="1">
          <mxGeometry x="-710" y="20" width="660" height="2470" as="geometry" />
        </mxCell>
        <mxCell id="mvioNwK95yMqdUQ73LqQ-35" value="&lt;font data-font-src=&quot;https://fonts.googleapis.com/css?family=Sarabun&quot; face=&quot;Sarabun&quot;&gt;Start&lt;/font&gt;" style="ellipse;whiteSpace=wrap;html=1;" parent="mvioNwK95yMqdUQ73LqQ-36" vertex="1">
          <mxGeometry x="255" y="40" width="130" height="30" as="geometry" />
        </mxCell>
        <mxCell id="QNhVIbcrn-Icenjs99R--4" style="edgeStyle=orthogonalEdgeStyle;rounded=0;orthogonalLoop=1;jettySize=auto;html=1;" parent="mvioNwK95yMqdUQ73LqQ-36" source="wmO79pwF0jpAWdddIBbS-16" edge="1">
          <mxGeometry relative="1" as="geometry">
            <mxPoint x="320" y="190" as="targetPoint" />
          </mxGeometry>
        </mxCell>
        <mxCell id="wmO79pwF0jpAWdddIBbS-4" style="edgeStyle=orthogonalEdgeStyle;rounded=0;orthogonalLoop=1;jettySize=auto;html=1;" edge="1" parent="mvioNwK95yMqdUQ73LqQ-36" source="wmO79pwF0jpAWdddIBbS-0">
          <mxGeometry relative="1" as="geometry">
            <mxPoint x="320" y="340" as="targetPoint" />
          </mxGeometry>
        </mxCell>
        <mxCell id="wmO79pwF0jpAWdddIBbS-25" style="edgeStyle=orthogonalEdgeStyle;rounded=0;orthogonalLoop=1;jettySize=auto;html=1;entryX=0.5;entryY=0;entryDx=0;entryDy=0;" edge="1" parent="mvioNwK95yMqdUQ73LqQ-36" source="wmO79pwF0jpAWdddIBbS-0" target="wmO79pwF0jpAWdddIBbS-23">
          <mxGeometry relative="1" as="geometry" />
        </mxCell>
        <mxCell id="wmO79pwF0jpAWdddIBbS-0" value="True" style="rhombus;whiteSpace=wrap;html=1;" vertex="1" parent="mvioNwK95yMqdUQ73LqQ-36">
          <mxGeometry x="280" y="190" width="80" height="80" as="geometry" />
        </mxCell>
        <mxCell id="wmO79pwF0jpAWdddIBbS-5" style="edgeStyle=orthogonalEdgeStyle;rounded=0;orthogonalLoop=1;jettySize=auto;html=1;" edge="1" parent="mvioNwK95yMqdUQ73LqQ-36" source="wmO79pwF0jpAWdddIBbS-3">
          <mxGeometry relative="1" as="geometry">
            <mxPoint x="320" y="480" as="targetPoint" />
          </mxGeometry>
        </mxCell>
        <mxCell id="wmO79pwF0jpAWdddIBbS-3" value="Display &quot;Enter 1 character&quot;" style="shape=parallelogram;perimeter=parallelogramPerimeter;whiteSpace=wrap;html=1;fixedSize=1;" vertex="1" parent="mvioNwK95yMqdUQ73LqQ-36">
          <mxGeometry x="208.5" y="340" width="223" height="60" as="geometry" />
        </mxCell>
        <mxCell id="wmO79pwF0jpAWdddIBbS-9" style="edgeStyle=orthogonalEdgeStyle;rounded=0;orthogonalLoop=1;jettySize=auto;html=1;" edge="1" parent="mvioNwK95yMqdUQ73LqQ-36" source="wmO79pwF0jpAWdddIBbS-6">
          <mxGeometry relative="1" as="geometry">
            <mxPoint x="320" y="630" as="targetPoint" />
          </mxGeometry>
        </mxCell>
        <mxCell id="wmO79pwF0jpAWdddIBbS-6" value="Read char" style="shape=parallelogram;perimeter=parallelogramPerimeter;whiteSpace=wrap;html=1;fixedSize=1;" vertex="1" parent="mvioNwK95yMqdUQ73LqQ-36">
          <mxGeometry x="260" y="480" width="120" height="60" as="geometry" />
        </mxCell>
        <mxCell id="wmO79pwF0jpAWdddIBbS-13" style="edgeStyle=orthogonalEdgeStyle;rounded=0;orthogonalLoop=1;jettySize=auto;html=1;" edge="1" parent="mvioNwK95yMqdUQ73LqQ-36" source="wmO79pwF0jpAWdddIBbS-7">
          <mxGeometry relative="1" as="geometry">
            <mxPoint x="540" y="685" as="targetPoint" />
          </mxGeometry>
        </mxCell>
        <mxCell id="wmO79pwF0jpAWdddIBbS-15" style="edgeStyle=orthogonalEdgeStyle;rounded=0;orthogonalLoop=1;jettySize=auto;html=1;" edge="1" parent="mvioNwK95yMqdUQ73LqQ-36" source="wmO79pwF0jpAWdddIBbS-7">
          <mxGeometry relative="1" as="geometry">
            <mxPoint x="310" y="160" as="targetPoint" />
            <Array as="points">
              <mxPoint x="320" y="830" />
              <mxPoint x="110" y="830" />
              <mxPoint x="110" y="160" />
            </Array>
          </mxGeometry>
        </mxCell>
        <mxCell id="wmO79pwF0jpAWdddIBbS-22" style="edgeStyle=orthogonalEdgeStyle;rounded=0;orthogonalLoop=1;jettySize=auto;html=1;entryX=0.5;entryY=0;entryDx=0;entryDy=0;" edge="1" parent="mvioNwK95yMqdUQ73LqQ-36" source="wmO79pwF0jpAWdddIBbS-7" target="wmO79pwF0jpAWdddIBbS-20">
          <mxGeometry relative="1" as="geometry" />
        </mxCell>
        <mxCell id="wmO79pwF0jpAWdddIBbS-7" value="char equal y or Y ?" style="rhombus;whiteSpace=wrap;html=1;" vertex="1" parent="mvioNwK95yMqdUQ73LqQ-36">
          <mxGeometry x="260" y="630" width="120" height="110" as="geometry" />
        </mxCell>
        <mxCell id="wmO79pwF0jpAWdddIBbS-8" value="Yes" style="text;html=1;align=center;verticalAlign=middle;resizable=0;points=[];autosize=1;strokeColor=none;fillColor=none;" vertex="1" parent="mvioNwK95yMqdUQ73LqQ-36">
          <mxGeometry x="270" y="280" width="40" height="30" as="geometry" />
        </mxCell>
        <mxCell id="wmO79pwF0jpAWdddIBbS-10" value="Yes" style="text;html=1;align=center;verticalAlign=middle;resizable=0;points=[];autosize=1;strokeColor=none;fillColor=none;" vertex="1" parent="mvioNwK95yMqdUQ73LqQ-36">
          <mxGeometry x="380" y="640" width="40" height="30" as="geometry" />
        </mxCell>
        <mxCell id="wmO79pwF0jpAWdddIBbS-16" value="" style="ellipse;whiteSpace=wrap;html=1;aspect=fixed;" vertex="1" parent="mvioNwK95yMqdUQ73LqQ-36">
          <mxGeometry x="310" y="150" width="20" height="20" as="geometry" />
        </mxCell>
        <mxCell id="wmO79pwF0jpAWdddIBbS-17" value="" style="edgeStyle=orthogonalEdgeStyle;rounded=0;orthogonalLoop=1;jettySize=auto;html=1;" edge="1" parent="mvioNwK95yMqdUQ73LqQ-36" source="mvioNwK95yMqdUQ73LqQ-35" target="wmO79pwF0jpAWdddIBbS-16">
          <mxGeometry relative="1" as="geometry">
            <mxPoint x="-390" y="210" as="targetPoint" />
            <mxPoint x="-390" y="90" as="sourcePoint" />
          </mxGeometry>
        </mxCell>
        <mxCell id="wmO79pwF0jpAWdddIBbS-18" value="No" style="text;html=1;align=center;verticalAlign=middle;resizable=0;points=[];autosize=1;strokeColor=none;fillColor=none;" vertex="1" parent="mvioNwK95yMqdUQ73LqQ-36">
          <mxGeometry x="230" y="630" width="40" height="30" as="geometry" />
        </mxCell>
        <mxCell id="wmO79pwF0jpAWdddIBbS-30" style="edgeStyle=orthogonalEdgeStyle;rounded=0;orthogonalLoop=1;jettySize=auto;html=1;" edge="1" parent="mvioNwK95yMqdUQ73LqQ-36" source="wmO79pwF0jpAWdddIBbS-19">
          <mxGeometry relative="1" as="geometry">
            <mxPoint x="330" y="1580" as="targetPoint" />
          </mxGeometry>
        </mxCell>
        <mxCell id="wmO79pwF0jpAWdddIBbS-19" value="Display each value in array" style="shape=parallelogram;perimeter=parallelogramPerimeter;whiteSpace=wrap;html=1;fixedSize=1;" vertex="1" parent="mvioNwK95yMqdUQ73LqQ-36">
          <mxGeometry x="240" y="1310" width="180" height="110" as="geometry" />
        </mxCell>
        <mxCell id="wmO79pwF0jpAWdddIBbS-20" value="store value in array&amp;nbsp;" style="rounded=0;whiteSpace=wrap;html=1;" vertex="1" parent="mvioNwK95yMqdUQ73LqQ-36">
          <mxGeometry x="260" y="800" width="120" height="60" as="geometry" />
        </mxCell>
        <mxCell id="wmO79pwF0jpAWdddIBbS-11" value="No" style="text;html=1;align=center;verticalAlign=middle;resizable=0;points=[];autosize=1;strokeColor=none;fillColor=none;" vertex="1" parent="mvioNwK95yMqdUQ73LqQ-36">
          <mxGeometry x="370" y="180" width="40" height="30" as="geometry" />
        </mxCell>
        <mxCell id="wmO79pwF0jpAWdddIBbS-28" style="edgeStyle=orthogonalEdgeStyle;rounded=0;orthogonalLoop=1;jettySize=auto;html=1;" edge="1" parent="mvioNwK95yMqdUQ73LqQ-36" source="wmO79pwF0jpAWdddIBbS-23" target="wmO79pwF0jpAWdddIBbS-19">
          <mxGeometry relative="1" as="geometry">
            <Array as="points">
              <mxPoint x="550" y="1215" />
            </Array>
          </mxGeometry>
        </mxCell>
        <mxCell id="wmO79pwF0jpAWdddIBbS-23" value="" style="ellipse;whiteSpace=wrap;html=1;aspect=fixed;" vertex="1" parent="mvioNwK95yMqdUQ73LqQ-36">
          <mxGeometry x="540" y="670" width="20" height="20" as="geometry" />
        </mxCell>
        <mxCell id="wmO79pwF0jpAWdddIBbS-29" value="&lt;font data-font-src=&quot;https://fonts.googleapis.com/css?family=Sarabun&quot; face=&quot;Sarabun&quot;&gt;End&lt;/font&gt;" style="ellipse;whiteSpace=wrap;html=1;" vertex="1" parent="mvioNwK95yMqdUQ73LqQ-36">
          <mxGeometry x="265" y="1580" width="130" height="30" as="geometry" />
        </mxCell>
      </root>
    </mxGraphModel>
  </diagram>
</mxfile>
